<?xml version="1.0" encoding="UTF-8"?>
<svg width="28px" height="20px" viewBox="0 0 28 20" version="1.1" xmlns="http://www.w3.org/2000/svg" xmlns:xlink="http://www.w3.org/1999/xlink">
    <title>Group 24</title>
    <defs>
        <filter color-interpolation-filters="auto" id="filter-1">
            <feColorMatrix in="SourceGraphic" type="matrix" values="0 0 0 0 0.592157 0 0 0 0 0.776471 0 0 0 0 0.976471 0 0 0 1.000000 0"></feColorMatrix>
        </filter>
        <filter color-interpolation-filters="auto" id="filter-2">
            <feColorMatrix in="SourceGraphic" type="matrix" values="0 0 0 0 0.658824 0 0 0 0 0.658824 0 0 0 0 0.658824 0 0 0 1.000000 0"></feColorMatrix>
        </filter>
    </defs>
    <g id="Homepage-dashboard-quick-info-icons" stroke="none" stroke-width="1" fill="none" fill-rule="evenodd">
        <g id="V2-with-image-(3-column)-Copy" transform="translate(-751.000000, -748.000000)">
            <g id="Group-14" transform="translate(595.254237, 573.000000)">
                <g id="Group-24" transform="translate(19.745763, 173.000000)" filter="url(#filter-1)">
                    <g transform="translate(136.000000, 2.000000)">
                        <g id="Group-23" transform="translate(0.000000, -0.000000)">
                            <g id="Group-20" transform="translate(0.000000, -0.000000)">
                                <g filter="url(#filter-2)" id="Group-3">
                                    <g transform="translate(0.000000, -0.000000)">
                                        <g id="Group-5" transform="translate(0.000000, -0.000000)" fill="#4076BF" fill-rule="nonzero">
                                            <path d="M22.8498137,3.797003 C22.7142674,3.61293764 22.5047869,3.50592289 22.2829839,3.50592289 L5.33148628,3.50592289 L4.58392811,0.55659651 C4.50177886,0.226991094 4.21425649,3.91928448e-05 3.88976696,3.91928448e-05 L0.718805932,3.91928448e-05 C0.320382072,-0.00416075546 0,0.32972525 0,0.744942462 C0,1.16015967 0.320382072,1.49404568 0.718805932,1.49404568 L3.33936699,1.49404568 L4.08281769,4.44337206 L6.30084742,13.3469989 C6.38299667,13.6766043 6.67051905,13.9077561 6.99500858,13.9077561 L7.40164737,13.9077561 C7.20448917,14.2972898 7.09358768,14.7381906 7.09358768,15.2047749 C7.09358768,16.7457872 8.29707418,18 9.77576067,18 C11.2544472,18 12.4579337,16.7457872 12.4579337,15.2047749 C12.4579337,14.7381906 12.3470322,14.2930092 12.149874,13.9077561 L14.9059813,13.9077561 C14.7088231,14.2972898 14.5979216,14.7381906 14.5979216,15.2047749 C14.5979216,16.7457872 15.8014081,18 17.2800946,18 C18.7587811,18 19.9622676,16.7457872 19.9622676,15.2047749 C19.9622676,14.7381906 19.8513661,14.2930092 19.6542079,13.9077561 L20.0608467,13.9077561 C20.3894437,13.9077561 20.6728586,13.6766043 20.7550078,13.3469989 L22.9730376,4.44337206 C23.0346495,4.2165008 22.9894674,3.97678777 22.8498137,3.797003 Z M11.0244293,15.2047749 C11.0244293,15.9196334 10.4658144,16.5017936 9.77986813,16.5017936 C9.0939219,16.5017936 8.53530701,15.9196334 8.53530701,15.2047749 C8.53530701,14.4899164 9.0939219,13.9077561 9.77986813,13.9077561 C10.4658144,13.9077561 11.0244293,14.4899164 11.0244293,15.2047749 Z M18.5287632,15.2047749 C18.5287632,15.9196334 17.9701483,16.5017936 17.2842021,16.5017936 C16.5982558,16.5017936 16.0396409,15.9196334 16.0396409,15.2047749 C16.0396409,14.4899164 16.5982558,13.9077561 17.2842021,13.9077561 C17.9701483,13.9077561 18.5287632,14.4899164 18.5287632,15.2047749 Z M19.5104467,12.4052691 L7.55362348,12.4052691 L5.70937283,4.99984874 L21.3546974,4.99984874 L19.5104467,12.4052691 Z" id="Shape"></path>
                                        </g>
                                    </g>
                                </g>
                                <polygon id="Fill-path-Copy" fill="#A8A8A8" fill-rule="nonzero" points="25.125 13 23.75 13 23.75 15.625 21 15.625 21 16.9375 23.75 16.9375 23.75 19.5625 25.125 19.5625 25.125 16.9375 27.875 16.9375 27.875 15.625 25.125 15.625"></polygon>
                            </g>
                            <g id="Group-37" transform="translate(21.000000, 13.000000)"></g>
                        </g>
                    </g>
                </g>
            </g>
        </g>
    </g>
</svg>